# xmcd
#
# Track frame offsets:
#	150
#	16422
#	30498
#	48669
#	64375
#	78837
#	96211
#	112189
#	129711
#	144012
#	165276
#
# Disc length: 2420 seconds
# Revision: 2
# Processed by: cddbd v1.5.2PL0 Copyright (c) Steve Scherf et al.
# Submitted via: dBpowerAMP V12.0
#
DISCID=8b09720b
DTITLE=Various Artist - Love Me Back
DYEAR=2010
DGENRE=R&B/Soul
TTITLE0=Jazmine Sullivan - Holding You Down (Goin' In Circles)
TTITLE1=Jazmine Sullivan - 10 Seconds
TTITLE2=Jazmine Sullivan - Good Enough
TTITLE3=Jazmine Sullivan - Don't Make Me Wait
TTITLE4=Jazmine Sullivan - Love You Long Time
TTITLE5=Jazmine Sullivan - Redemption
TTITLE6=Jazmine Sullivan - Excuse Me
TTITLE7=Jazmine Sullivan and Ne-Yo - U Get On My Nerves
TTITLE8=Jazmine Sullivan - Stuttering
TTITLE9=Jazmine Sullivan - Famous
TTITLE10=Jazmine Sullivan - Luv Back
EXTD=
EXTT0=
EXTT1=
EXTT2=
EXTT3=
EXTT4=
EXTT5=
EXTT6=
EXTT7=
EXTT8=
EXTT9=
EXTT10=
PLAYORDER=
